<mxfile host="app.diagrams.net" modified="2020-09-22T18:32:05.717Z" agent="5.0 (Windows)" etag="O1qMchniQb0ltv6cGjDf" version="13.7.4" type="github">
  <diagram id="Aw1l1W_AuR1MbWAIftX0" name="Page-1">
    <mxGraphModel dx="942" dy="672" grid="1" gridSize="10" guides="1" tooltips="1" connect="1" arrows="1" fold="1" page="1" pageScale="1" pageWidth="827" pageHeight="1169" math="0" shadow="0">
      <root>
        <mxCell id="0" />
        <mxCell id="1" parent="0" />
      </root>
    </mxGraphModel>
  </diagram>
</mxfile>
